<?xml version="1.0" encoding="UTF-8"?>
<svg data-name="Layer 1" viewBox="0 0 888 741.05" xmlns="http://www.w3.org/2000/svg">
<path transform="translate(-156 -79.476)" d="m521.9 253.86h-4.0319v-110.45a63.927 63.927 0 0 0-63.927-63.927h-234.01a63.927 63.927 0 0 0-63.927 63.927v605.95a63.927 63.927 0 0 0 63.927 63.927h234.01a63.927 63.927 0 0 0 63.927-63.927v-416.88h4.0319z" fill="#e6e6e6"/>
<path transform="translate(-156 -79.476)" d="m456.52 96.107h-30.546a22.681 22.681 0 0 1-21 31.247h-134.06a22.681 22.681 0 0 1-21-31.247h-28.53a47.74 47.74 0 0 0-47.74 47.74v605.06a47.74 47.74 0 0 0 47.74 47.74h235.14a47.74 47.74 0 0 0 47.74-47.74v-605.06a47.74 47.74 0 0 0-47.74-47.74z" fill="#fff"/>
<path transform="translate(-156 -79.476)" d="m269.67 219.11h-14.039a1.8613 1.8613 0 0 0-1.8613 1.8613v6.1622a1.8613 1.8613 0 0 0 1.8613 1.8613h2.3265v9.2332h9.3862v-9.2332h2.3265a1.8613 1.8613 0 0 0 1.8613-1.8613v-6.1622a1.8613 1.8613 0 0 0-1.8613-1.8613z" fill="#e6e6e6"/>
<path transform="translate(-156 -79.476)" d="m283.73 275.51a72.178 72.178 0 0 1-12.557-42.794 1.5223 1.5223 0 0 0-1.1882-1.5191v-2.6627h-14.827v2.6257h-0.2043a1.5214 1.5214 0 0 0-1.5194 1.5234q6e-5 0.05544 0.00418 0.11074 1.7522 24.425-11.833 43.808a4.1929 4.1929 0 0 0-0.75883 2.541l1.6213 50.151a4.3415 4.3415 0 0 0 4.3043 4.1902h33.537a4.343 4.343 0 0 0 4.3069-4.2641l0.62478-48.693a8.7878 8.7878 0 0 0-1.5104-5.0176z" fill="#e6e6e6"/>
<path transform="translate(-156 -79.476)" d="m278.43 292.17h-29.192a2.997 2.997 0 0 0-2.9622 3.4528l4.4113 28.673h25.33l5.3581-28.577a2.997 2.997 0 0 0-2.9457-3.5494z" fill="#fff"/>
<path transform="translate(-156 -79.476)" d="m425.96 369.35h-14.039a1.8613 1.8613 0 0 0-1.8613 1.8613v6.1623a1.8613 1.8613 0 0 0 1.8613 1.8613h2.3265v9.2332h9.3862v-9.2332h2.3265a1.8613 1.8613 0 0 0 1.8613-1.8613v-6.1623a1.8613 1.8613 0 0 0-1.8613-1.8613z" fill="#e6e6e6"/>
<path transform="translate(-156 -79.476)" d="m440.02 425.74a72.178 72.178 0 0 1-12.557-42.794 1.5223 1.5223 0 0 0-1.1882-1.5191v-2.6627h-14.827v2.6257h-0.2043a1.5214 1.5214 0 0 0-1.5194 1.5234q7e-5 0.05542 0.00418 0.11074 1.7522 24.425-11.833 43.808a4.1929 4.1929 0 0 0-0.75883 2.541l1.6213 50.151a4.3414 4.3414 0 0 0 4.3043 4.1902h33.537a4.343 4.343 0 0 0 4.3069-4.2641l0.62479-48.693a8.7879 8.7879 0 0 0-1.5104-5.0176z" fill="#e6e6e6"/>
<path transform="translate(-156 -79.476)" d="m434.71 442.4h-29.192a2.997 2.997 0 0 0-2.9622 3.4528l4.4113 28.673h25.33l5.3581-28.577a2.9971 2.9971 0 0 0-2.9457-3.5494z" fill="#fff"/>
<path transform="translate(-156 -79.476)" d="M249.935,581.73267h-6.65947a.88292.88292,0,0,0-.88292.88291v2.923a.88292.88292,0,0,0,.88292.88291h1.10357v4.37972h4.45233v-4.37972H249.935a.88291.88291,0,0,0,.88291-.88291v-2.923A.88291.88291,0,0,0,249.935,581.73267Z" fill="#e6e6e6"/>
<path transform="translate(-156 -79.476)" d="m256.61 608.48a34.237 34.237 0 0 1-5.9563-20.299 0.72208 0.72208 0 0 0-0.56363-0.72057v-1.263h-7.0333v1.2455h-0.09691a0.72168 0.72168 0 0 0-0.72074 0.72262q0 0.02628 2e-3 0.05252a31.246 31.246 0 0 1-5.6131 20.78 1.9888 1.9888 0 0 0-0.35994 1.2053l0.769 23.789a2.0593 2.0593 0 0 0 2.0417 1.9876h15.908a2.0601 2.0601 0 0 0 2.043-2.0226l0.29636-23.097a4.1684 4.1684 0 0 0-0.71644-2.3801z" fill="#e6e6e6"/>
<rect x="83.137" y="537.75" width="15.179" height="7.5895" fill="#fff"/>
<path transform="translate(-156 -79.476)" d="M280.935,581.73267h-6.65947a.88292.88292,0,0,0-.88292.88291v2.923a.88292.88292,0,0,0,.88292.88291h1.10357v4.37972h4.45233v-4.37972H280.935a.88291.88291,0,0,0,.88291-.88291v-2.923A.88291.88291,0,0,0,280.935,581.73267Z" fill="#e6e6e6"/>
<path transform="translate(-156 -79.476)" d="m287.61 608.48a34.237 34.237 0 0 1-5.9563-20.299 0.72208 0.72208 0 0 0-0.56363-0.72057v-1.263h-7.0333v1.2455h-0.09691a0.72168 0.72168 0 0 0-0.72074 0.72262q0 0.02628 2e-3 0.05252a31.246 31.246 0 0 1-5.6131 20.78 1.9888 1.9888 0 0 0-0.35994 1.2053l0.769 23.789a2.0593 2.0593 0 0 0 2.0417 1.9876h15.908a2.0601 2.0601 0 0 0 2.043-2.0226l0.29636-23.097a4.1684 4.1684 0 0 0-0.71644-2.3801z" fill="#e6e6e6"/>
<rect x="114.14" y="537.75" width="15.179" height="7.5895" fill="#fff"/>
<path transform="translate(-156 -79.476)" d="M311.935,581.73267h-6.65947a.88292.88292,0,0,0-.88292.88291v2.923a.88292.88292,0,0,0,.88292.88291h1.10357v4.37972h4.45233v-4.37972H311.935a.88291.88291,0,0,0,.88291-.88291v-2.923A.88291.88291,0,0,0,311.935,581.73267Z" fill="#e6e6e6"/>
<path transform="translate(-156 -79.476)" d="m318.61 608.48a34.237 34.237 0 0 1-5.9563-20.299 0.72208 0.72208 0 0 0-0.56363-0.72057v-1.263h-7.0333v1.2455h-0.09691a0.72168 0.72168 0 0 0-0.72074 0.72262q0 0.02628 2e-3 0.05252a31.246 31.246 0 0 1-5.6131 20.78 1.9888 1.9888 0 0 0-0.35994 1.2053l0.769 23.789a2.0593 2.0593 0 0 0 2.0417 1.9876h15.908a2.0601 2.0601 0 0 0 2.043-2.0226l0.29636-23.097a4.1684 4.1684 0 0 0-0.71644-2.3801z" fill="#e6e6e6"/>
<rect x="145.14" y="537.75" width="15.179" height="7.5895" fill="#fff"/>
<path transform="translate(-156 -79.476)" d="m401.57 523.61h-14.039a1.8613 1.8613 0 0 0-1.8613 1.8613v6.1623a1.8613 1.8613 0 0 0 1.8613 1.8613h2.3265v9.2332h9.3862v-9.2332h2.3265a1.8613 1.8613 0 0 0 1.8613-1.8613v-6.1623a1.8613 1.8613 0 0 0-1.8613-1.8613z" fill="#e6e6e6"/>
<path transform="translate(-156 -79.476)" d="m415.63 580.01a72.178 72.178 0 0 1-12.557-42.794 1.5223 1.5223 0 0 0-1.1882-1.5191v-2.6627h-14.827v2.6257h-0.2043a1.5214 1.5214 0 0 0-1.5194 1.5234q7e-5 0.05542 0.00418 0.11074 1.7522 24.425-11.833 43.808a4.1929 4.1929 0 0 0-0.75883 2.541l1.6213 50.151a4.3414 4.3414 0 0 0 4.3043 4.1902h33.537a4.343 4.343 0 0 0 4.3069-4.2641l0.62478-48.693a8.7878 8.7878 0 0 0-1.5104-5.0176z" fill="#e6e6e6"/>
<path transform="translate(-156 -79.476)" d="m410.32 596.67h-29.192a2.997 2.997 0 0 0-2.9622 3.4528l4.4113 28.673h25.33l5.3581-28.577a2.9971 2.9971 0 0 0-2.9457-3.5494z" fill="#fff"/>
<path transform="translate(-156 -79.476)" d="m409.23 339.94h-83.688c5.8509-31.633 4.5048-69.832 0-110.91h83.688c-4.385 41.08-5.6954 79.278 0 110.91z" fill="#e6e6e6"/>
<circle cx="211.89" cy="201.98" r="20.166" fill="#fff"/>
<path transform="translate(-156 -79.476)" d="m332.6 487.15h-83.688c5.8509-31.633 4.5048-69.832 0-110.91h83.688c-4.385 41.08-5.6954 79.278 0 110.91z" fill="#e6e6e6"/>
<circle cx="135.26" cy="349.19" r="20.166" fill="#fff"/>
<path transform="translate(-156 -79.476)" d="m456.62 347h-83.688c5.8509-31.633 4.5048-69.832 0-110.91h83.688c-4.385 41.08-5.6954 79.278 0 110.91z" fill="#e6e6e6"/>
<circle cx="259.28" cy="209.04" r="20.166" fill="#fff"/>
<path transform="translate(-156 -79.476)" d="m456.62 341.95h-83.688c5.8509-31.633 4.5048-69.832 0-110.91h83.688c-4.385 41.08-5.6954 79.278 0 110.91z" fill="#e6e6e6"/>
<circle cx="259.28" cy="204" r="20.166" fill="#fff"/>
<path transform="translate(-156 -79.476)" d="m456.62 347h-83.688c5.8509-31.633 4.5048-69.832 0-110.91h83.688c-4.385 41.08-5.6954 79.278 0 110.91z" fill="#e6e6e6"/>
<circle cx="259.28" cy="209.04" r="20.166" fill="#fff"/>
<rect x="45.525" y="254.41" width="274.25" height="30.249" fill="#e6e6e6"/>
<rect x="45.525" y="404.65" width="274.25" height="30.249" fill="#e6e6e6"/>
<rect x="45.525" y="554.88" width="274.25" height="30.249" fill="#e6e6e6"/>
<path transform="translate(-156 -79.476)" d="m952.85 757.07-68.325-48.326c23.044-22.448 44.002-54.411 64.046-90.551l68.325 48.326c-27.302 31.006-50.429 61.436-64.046 90.551z" fill="#6C63FF"/>
<circle cx="796.87" cy="605.98" r="20.166" fill="#fff"/>
<path transform="translate(-156 -79.476)" d="M623.26239,536.554h-7.5a.99435.99435,0,0,0-.99435.99435v3.292a.99434.99434,0,0,0,.99435.99434h1.24285v4.93249h5.01427v-4.93249h1.24285a.99435.99435,0,0,0,.99435-.99434v-3.292A.99436.99436,0,0,0,623.26239,536.554Z" fill="#e6e6e6"/>
<path transform="translate(-156 -79.476)" d="m630.77 566.68a38.558 38.558 0 0 1-6.708-22.861 0.81323 0.81323 0 0 0-0.63476-0.81152v-1.4224h-7.921v1.4027h-0.10914a0.81275 0.81275 0 0 0-0.8117 0.81381q0 0.02961 0.00223 0.05916a35.189 35.189 0 0 1-6.3216 23.403 2.2399 2.2399 0 0 0-0.40537 1.3574l0.86611 26.792a2.3193 2.3193 0 0 0 2.2994 2.2385h17.916a2.3201 2.3201 0 0 0 2.3008-2.2779l0.33376-26.012a4.6946 4.6946 0 0 0-0.80688-2.6805z" fill="#6C63FF"/>
<path transform="translate(-156 -79.476)" d="m621.7 537.63a2.1453 2.1453 0 0 1-4.2905 0" opacity=".2" style="isolation:isolate"/>
<rect x="456.16" y="492.37" width="15.124" height="10.083" fill="#fff"/>
<path transform="translate(-156 -79.476)" d="m860.6 641.22h-14.039a1.8613 1.8613 0 0 0-1.8613 1.8613v6.1623a1.8613 1.8613 0 0 0 1.8613 1.8613h2.3265v9.2332h9.3862v-9.2332h2.3265a1.8613 1.8613 0 0 0 1.8613-1.8613v-6.1623a1.8613 1.8613 0 0 0-1.8613-1.8613z" fill="#e6e6e6"/>
<path transform="translate(-156 -79.476)" d="m874.66 697.61a72.178 72.178 0 0 1-12.557-42.794 1.5222 1.5222 0 0 0-1.1882-1.5191v-2.6627h-14.827v2.6257h-0.2043a1.5214 1.5214 0 0 0-1.5194 1.5234q8e-5 0.05543 0.00418 0.11073 1.7522 24.425-11.833 43.808a4.1929 4.1929 0 0 0-0.75883 2.541l1.6213 50.151a4.3415 4.3415 0 0 0 4.3043 4.1902h33.537a4.343 4.343 0 0 0 4.3069-4.2641l0.62479-48.693a8.7878 8.7878 0 0 0-1.5104-5.0176z" fill="#6C63FF"/>
<path transform="translate(-156 -79.476)" d="m857.68 643.23a4.0157 4.0157 0 0 1-8.0315 0" opacity=".2" style="isolation:isolate"/>
<path transform="translate(-156 -79.476)" d="m869.36 714.27h-29.192a2.997 2.997 0 0 0-2.9622 3.4528l4.4113 28.673h25.33l5.3581-28.577a2.9971 2.9971 0 0 0-2.9457-3.5494z" fill="#fff"/>
<path transform="translate(-156 -79.476)" d="m820.55 757h-83.688c5.8509-31.633 4.5049-69.832 0-110.91h83.688c-4.385 41.08-5.6954 79.278 0 110.91z" fill="#6C63FF"/>
<circle cx="623.21" cy="619.04" r="20.166" fill="#fff"/>
<polygon points="322.24 328.47 341.03 326.76 352.99 297.72 331.64 285.77" fill="#ffb8b8"/>
<path transform="translate(-156 -79.476)" d="m650.66 487.65a10.593 10.593 0 0 0-9.2019-14.517l-29.17-1.7394-4.2949 14.282 30.029 8.2469a10.593 10.593 0 0 0 12.638-6.2729z" fill="#ffb8b8"/>
<path transform="translate(-156 -79.476)" d="m619.34 494.16-0.32093-26.8-64.793-10.339-49.915-57.248a16.338 16.338 0 0 0-21.294-2.9119 16.338 16.338 0 0 0-2.8464 24.922l41.18 50.678z" fill="#575a89"/>
<path transform="translate(-156 -79.476)" d="m463.73 795.64h17.079l42.363-191.53 43.887 59.169 25.619 128.09h16.225l-3.4159-137.49-57.216-146.88h-56.362c-15.402 27.874-27.485 56.608-13.663 86.251z" fill="#2f2e41"/>
<path transform="translate(-156 -79.476)" d="m582.2 807.28a4.4573 4.4573 0 0 0 3.4756 5.7183l41.793 7.4167a6.8765 6.8765 0 0 0 7.8008-4.7131 6.8338 6.8338 0 0 0-3.3422-8.1257 63.902 63.902 0 0 1-23.048-20.038c-4.5934 4.2773-9.7273 3.875-15.179 0.72281l-5.7825 0.72281z" fill="#2f2e41"/>
<path transform="translate(-156 -79.476)" d="m455.82 807.28a4.4573 4.4573 0 0 0 3.4756 5.7183l41.793 7.4167a6.8765 6.8765 0 0 0 7.8008-4.7131 6.8338 6.8338 0 0 0-3.3422-8.1257 63.902 63.902 0 0 1-23.048-20.038c-4.5934 4.2773-9.7273 3.875-15.179 0.72281l-5.7825 0.72281z" fill="#2f2e41"/>
<circle cx="353.41" cy="284.49" r="23.911" fill="#ffb8b8"/>
<path transform="translate(-156 -79.476)" d="m488.06 513.41 62.339-1.7079-18.308-57.62c11.377-18.239-0.073-36.46-16.278-54.677l-12.809-8.5396-20.495-1.7079a50.314 50.314 0 0 0-13.549 35.05c0.4058 27.827 5.3329 58.119 19.1 89.202z" fill="#575a89"/>
<path transform="translate(-156 -79.476)" d="m631.29 552.19a10.593 10.593 0 0 0-2.7493-16.966l-26.134-13.074-9.567 11.441 24.363 19.395a10.593 10.593 0 0 0 14.087-0.7956z" fill="#ffb8b8"/>
<path transform="translate(-156 -79.476)" d="m599.93 545.86 10.248-24.765-55.502-34.994-23.37-72.268a16.338 16.338 0 0 0-18.432-11.054 16.338 16.338 0 0 0-12.421 21.793l17.923 62.791z" fill="#575a89"/>
<path transform="translate(-156 -79.476)" d="m470.13 354.57c0 9.3039 6.0422 23.712 13.663 29.889 5.1278 4.1557 11.905 3.9807 14.517-1.7079 2.6803-5.8356 11.919-19.552 28.181-28.181 21.678-11.503-7.6876-31.182-28.181-28.181-15.4 2.2548-28.181 12.617-28.181 28.181z" fill="#2f2e41"/>
<circle cx="328.65" cy="245.2" r="17.079" fill="#2f2e41"/>
<path transform="translate(-156 -79.476)" d="m504.29 318.7a17.069 17.069 0 0 0-15.798-17.015c0.42437-0.03158 0.84854-0.06468 1.2809-0.06468a17.079 17.079 0 0 1 0 34.159c-0.4324 0-0.85657-0.0331-1.2809-0.06468a17.069 17.069 0 0 0 15.798-17.015z" fill="#2f2e41"/>
<ellipse cx="353.84" cy="287.9" rx="3.8428" ry="5.1238" fill="#ffb8b8"/>
<polygon points="837.75 684.84 571.88 684.84 515.58 418.69 467.53 418.69 467.53 406.75 525.26 406.75 581.56 672.9 837.75 672.9" fill="#3f3d56"/>
<circle cx="610.84" cy="707.88" r="25.591" fill="#3f3d56"/>
<circle cx="801.92" cy="707.88" r="25.591" fill="#3f3d56"/>
<path transform="translate(-156 -79.476)" d="m988.9 758.7h-258.68l-45.641-225.55h347.15a12.266 12.266 0 0 1 12.116 14.167l-42.833 201.03a12.204 12.204 0 0 1-12.114 10.36zm-255.87-3.4122h255.87a8.8057 8.8057 0 0 0 8.742-7.4775l42.833-201.03a8.8501 8.8501 0 0 0-8.7437-10.225h-343.01z" fill="#3f3d56"/>
<polygon points="624.51 678.5 594.62 455.65 597.99 455.1 627.88 677.94" fill="#3f3d56"/>
<polygon points="790.71 676.79 787.34 676.24 816.36 455.1 819.73 455.65" fill="#3f3d56"/>
<rect x="708.11" y="455.38" width="3.4122" height="222.85" fill="#3f3d56"/>
<rect transform="translate(112.39 1382.9) rotate(-89.861)" x="865.45" y="431.52" width="3.4122" height="330.3" fill="#3f3d56"/>
<rect transform="translate(-160.78 -73.554) rotate(-.39166)" x="718.84" y="700.96" width="290.18" height="3.4123" fill="#3f3d56"/>
<ellipse cx="472.65" cy="411.02" rx="18.767" ry="10.237" fill="#3f3d56"/>
</svg>
